# xmcd
#
# Track frame offsets:
# 150
# 19028
# 39033
# 56760
# 74256
# 104730
# 125673
#
# Disc length: 1984 seconds
#
# Revision: 0
# Processed by: cddbd v1.4PL0 Copyright (c) Steve Scherf et al.
# Submitted via: Audion 3.0.2 (http://www.panic.com/audion/)
#
DISCID=5d07be07
DTITLE=399 Shy - Englewood Studios Demo
DYEAR=1900
DGENRE=
TTITLE0=Do You Right
TTITLE1=Good Vibes
TTITLE2=Kingdom Come
TTITLE3=Mama's Trippin
TTITLE4=Changing Seasons
TTITLE5=Daylight
TTITLE6=Itizwutitiz
EXTD=
EXTT0=
EXTT1=
EXTT2=
EXTT3=
EXTT4=
EXTT5=
EXTT6=
PLAYORDER=
